# xmcd
#
# Track frame offsets: 
#        150
#        12812
#        27078
#        49404
#        68638
#        90915
#        103666
#        115775
#        130660
#        148533
#        166440
#        179591
#        193988
#        204547
#        221795
#        231888
#        245542
#        259964
#        273934
#        285943
#        298696
#        311609
#        323189
#        336596
#
# Disc length: 4735 seconds
#
# Revision: 0
# Processed by: cddbd v1.5.2PL0 Copyright (c) Steve Scherf et al.
# Submitted via: ExactAudioCopy v1.0b1
#
DISCID=6e127d18
DTITLE=Billy Stewart - Unbelievable - Cross My Heart
DYEAR=2011
DGENRE=R&B
TTITLE0=Tell It Like It Is
TTITLE1=How Nice It Is
TTITLE2=Summertime
TTITLE3=Foggy Day
TTITLE4=Teach Me Tonight
TTITLE5=Canadian Sunset
TTITLE6=Time After Time
TTITLE7=Misty
TTITLE8=Moon River
TTITLE9=My Funny Valentine
TTITLE10=Love Is Here To Stay
TTITLE11=That Old Black Magic
TTITLE12=Almost Like Being In Love
TTITLE13=Over The Rainbow
TTITLE14=Why Am I Lonely
TTITLE15=Cross My Heart
TTITLE16=Why Do I Love You So
TTITLE17=You've Got Such Good Loving
TTITLE18=Fat Boy's Boogaloo
TTITLE19=Tell Me The Truth
TTITLE20=What Have I Done
TTITLE21=Crazy 'Bout You Baby
TTITLE22=I'm In Love (Oh Yes I Am)
TTITLE23=By The Time I Get To Phoenix
EXTD=
EXTT0=
EXTT1=
EXTT2=
EXTT3=
EXTT4=
EXTT5=
EXTT6=
EXTT7=
EXTT8=
EXTT9=
EXTT10=
EXTT11=
EXTT12=
EXTT13=
EXTT14=
EXTT15=
EXTT16=
EXTT17=
EXTT18=
EXTT19=
EXTT20=
EXTT21=
EXTT22=
EXTT23=
PLAYORDER=
